<?xml version="1.0" standalone="no"?>
<!DOCTYPE svg PUBLIC "-//W3C//DTD SVG 20010904//EN"
 "http://www.w3.org/TR/2001/REC-SVG-20010904/DTD/svg10.dtd">
<svg version="1.0" xmlns="http://www.w3.org/2000/svg"
 width="225.000000pt" height="225.000000pt" viewBox="0 0 225.000000 225.000000"
 preserveAspectRatio="xMidYMid meet">

<g transform="translate(0.000000,225.000000) scale(0.100000,-0.100000)"
fill="#000000" stroke="none">
<path d="M0 1125 l0 -1125 1125 0 1125 0 0 1125 0 1125 -1125 0 -1125 0 0
-1125z m1498 89 c13 -9 30 -32 39 -51 12 -31 13 -41 1 -71 -30 -80 -122 -103
-181 -44 -95 96 27 239 141 166z m-1029 -10 c28 -35 28 -97 1 -124 -14 -14
-33 -20 -66 -20 -37 0 -47 -4 -51 -20 -13 -49 -23 -12 -23 85 l0 105 59 0 c52
0 62 -3 80 -26z m232 -77 c26 -56 43 -104 37 -106 -5 -1 -15 5 -23 15 -19 27
-112 28 -128 2 -11 -17 -42 -26 -35 -10 21 53 93 202 97 202 3 0 27 -46 52
-103z m276 81 c28 -26 32 -92 6 -120 -15 -17 -15 -20 8 -45 21 -23 22 -25 4
-18 -107 42 -135 45 -135 14 0 -12 -5 -19 -12 -17 -9 3 -14 36 -16 106 l-3
102 63 0 c50 0 66 -4 85 -22z m303 7 c0 -12 -14 -15 -70 -15 l-70 0 0 -60 c0
-57 1 -60 25 -60 16 0 25 -6 25 -16 0 -12 -7 -15 -25 -12 -19 4 -25 1 -25 -13
0 -11 -7 -19 -15 -19 -12 0 -15 18 -15 105 l0 105 85 0 c69 0 85 -3 85 -15z
m380 -90 c0 -63 -4 -105 -10 -105 -6 0 -10 42 -10 105 0 63 4 105 10 105 6 0
10 -42 10 -105z m268 93 c-3 -8 -27 -14 -58 -16 -65 -4 -80 -14 -80 -56 0 -48
12 -58 76 -65 55 -6 59 -8 59 -31 0 -24 -2 -25 -77 -28 -65 -2 -78 0 -78 13 0
12 14 15 63 17 l62 2 -52 3 c-62 5 -83 26 -83 87 0 63 29 86 108 86 46 0 63
-3 60 -12z"/>
<path d="M1404 1200 c-29 -11 -54 -49 -54 -78 0 -32 52 -82 85 -82 34 0 85 50
85 84 0 52 -68 96 -116 76z"/>
<path d="M350 1140 l0 -60 39 0 c48 0 71 21 71 64 0 43 -16 56 -67 56 l-43 0
0 -60z"/>
<path d="M628 1137 c-10 -23 -18 -46 -18 -50 0 -4 18 -7 41 -7 37 0 40 2 33
23 -7 23 -33 77 -37 77 -1 0 -10 -19 -19 -43z"/>
<path d="M860 1139 l0 -62 46 7 c60 8 64 11 64 55 0 48 -14 61 -67 61 l-43 0
0 -61z"/>
</g>
</svg>
